<?xml version="1.0" encoding="UTF-8"?>
<svg width="800px" height="800px" viewBox="0 0 24 24" xmlns="http://www.w3.org/2000/svg">
  <path fill="currentColor" d="M12 .5C5.65.5.5 5.65.5 12c0 5.09 3.292 9.4 7.867 10.94.575.108.786-.25.786-.557 0-.275-.01-1.004-.015-1.97-3.2.695-3.878-1.543-3.878-1.543-.523-1.33-1.277-1.687-1.277-1.687-1.043-.713.079-.699.079-.699 1.154.082 1.762 1.186 1.762 1.186 1.026 1.76 2.693 1.252 3.35.958.104-.744.402-1.253.732-1.542-2.554-.29-5.236-1.278-5.236-5.689 0-1.257.449-2.285 1.184-3.09-.118-.29-.513-1.458.114-3.04 0 0 .965-.309 3.162 1.179.917-.255 1.9-.383 2.878-.388.977.005 1.96.133 2.878.388 2.195-1.488 3.158-1.179 3.158-1.179.629 1.582.235 2.75.117 3.04.738.805 1.183 1.833 1.183 3.09 0 4.421-2.688 5.395-5.255 5.68.413.356.781 1.057.781 2.132 0 1.54-.014 2.78-.014 3.157 0 .309.208.67.792.556C20.213 21.397 23.5 17.09 23.5 12 23.5 5.65 18.35.5 12 .5z"/>
</svg>
