<svg xmlns="http://www.w3.org/2000/svg" width="1365.333" height="1365.333" viewBox="0 0 1024 1024"><path d="M723.5 169.8c-171.1 6.1-460.1 93.3-522.3 157.5-35.4 36.6 2.9 75.8 61.8 63.2 26.3-5.6 72-26.1 72-32.3 0-5.2-2.3-5.2-18.7-.2-35.8 10.7-78.5 13.3-80.1 4.9-2.4-12.5 68.7-54.3 142.7-83.9 29.6-11.8 100.4-36.1 101.6-34.8.3.3-18.2 30-41 65.8-79.3 125-140 243.2-159 309.4-6 20.9-1.6 34.9 12.1 38.5 11.4 3 24.1-6.4 22.1-16.5-1.7-9.3 23.8-69.1 54.1-126.9C398.9 457.2 450 371.3 499 296c25.1-38.6 28.1-49.4 16-58-4.2-3-5.8-2.4 26.4-10.6C592 214.6 642.6 204.7 697 197c41.9-6 94.2-8.7 115.6-6 16 2 21 1.4 22-2.6 2.2-8.6-23.6-15.9-65.1-18.4-16.3-1-24.1-1-46-.2"/><path d="M544.3 322.9c-20.5 9.6-54.5 46.3-71.5 77.1-24.6 44.8-15.1 84 21.4 87.6 23 2.2 46.7-12.7 91.5-57.4 21.7-21.7 21.9-24.9-2.2 27.8-24.8 54.1-22.4 49.9-31.2 54.5-111.7 58.8-209.1 148.1-249.2 228.3-33.3 66.7-5.3 110.9 56.7 89.6 70.3-24.2 155.8-129.2 229.9-282.4 7.3-15.1 14.3-29.5 15.5-31.9 7.9-15.3 129.2-51.3 173.8-51.5 24.3-.1 27.3 1.8 23.7 15.2-3.5 12.9 10 8.6 16.9-5.4 7.8-15.9-1.1-29.5-21.1-32.4-34-4.8-113.5 12.7-173.9 38.5-2.1.9-3.6 1.2-3.4.8.9-1.9 7-15.3 31.5-70.3 29.7-66.4 31.7-74.6 19.7-81.9-12.7-7.7-27.7-4.6-33.3 6.8-16.9 34.2-81.9 98.3-119.4 117.6-10 5.1-14.6 5.8-14.8 2.2-1.3-19.8 24.3-62.8 58.4-98.1 12-12.5 14.2-17.1 11.4-23.7-4.3-10-20.2-15.8-30.4-11M532 564.2c-61.3 116.2-129.5 199.4-185.7 226.4-15.4 7.4-18.9 4.1-14.8-14.2 12.7-57.3 89.4-151 169.5-207.2 12.8-8.9 41.3-27.1 41.9-26.6.1.1-4.7 9.9-10.9 21.6"/></svg>